<?xml version="1.0" standalone="no"?><!DOCTYPE svg PUBLIC "-//W3C//DTD SVG 1.1//EN" "http://www.w3.org/Graphics/SVG/1.1/DTD/svg11.dtd"><svg t="1732444994219" class="icon" viewBox="0 0 1024 1024" version="1.1" xmlns="http://www.w3.org/2000/svg" p-id="3581" xmlns:xlink="http://www.w3.org/1999/xlink" width="200" height="200"><path d="M872.727273 209.454545h-698.181818a34.909091 34.909091 0 0 1 0-69.818181h698.181818a34.909091 34.909091 0 0 1 0 69.818181z m0 337.454546h-698.181818a34.909091 34.909091 0 0 1 0-69.818182h698.181818a34.909091 34.909091 0 0 1 0 69.818182z m0 337.454545h-698.181818a34.909091 34.909091 0 0 1 0-69.818181h698.181818a34.909091 34.909091 0 0 1 0 69.818181z m-133.818182-512h-430.545455a34.909091 34.909091 0 0 1 0-69.818181h430.545455a34.909091 34.909091 0 0 1 0 69.818181z m-2.909091 349.090909h-424.727273a34.909091 34.909091 0 0 1 0-69.818181h424.727273a34.909091 34.909091 0 0 1 0 69.818181z" fill="#333333" p-id="3582"></path></svg>