<?xml version="1.0" standalone="no"?><!DOCTYPE svg PUBLIC "-//W3C//DTD SVG 1.1//EN" "http://www.w3.org/Graphics/SVG/1.1/DTD/svg11.dtd"><svg t="1732440711502" class="icon" viewBox="0 0 1024 1024" version="1.1" xmlns="http://www.w3.org/2000/svg" p-id="13329" xmlns:xlink="http://www.w3.org/1999/xlink" width="200" height="200"><path d="M626.3639986462551 945.1673092635388c-26.450005965432098 0-49.60670656790122-2.2852915621399177-69.76698258436213-10.073233804115226-17.10171359341564-3.1068918518518513-27.181851601646088-7.801750650205761-30.28183924938271-15.520650851028805-6.213783703703703-8.49907526584362-6.213783703703703-25.600788859259257-1.5258291094650205-51.97484857942387l122.5565272493827-698.0937439762964c4.612008348971193-30.288743453497943 15.444704605761316-49.682652813168716 30.13685096296296-59.68684457613168 21.831093412345684-11.6708666363786 54.41893683621399-17.874984454320987 99.39982664691358-17.874984454320987h38.780914515226335l14.705954765432098-77.5687332345679H364.9666883213169l-14.696288879670782 77.5687332345679h38.780914515226335c24.01006023111111 0 48.01597793975308 3.8732585086419746 71.36599625744856 9.306867147325104 15.435038720000001 5.3852792098765425 25.59802717761317 10.080138008230453 30.21003552658436 16.28701750781893 4.612008348971193 9.306867147325104 6.206879499588478 26.374059720164606 1.5879669465020574 51.96794437530864l-122.54962304526751 698.0937439762964c-6.211022022057614 31.807668358847735-15.592454573827158 51.194673514403284-30.292885975967074 59.693748780246914-23.271310390781895 11.675009158847736-57.436074034567895 17.874984454320987-100.83175858041152 17.874984454320987h-38.78781871934156l-13.182887337613169 77.5687332345679h465.38892511341555l13.19393406419753-77.5687332345679h-38.789199560164604z" p-id="13330" fill="#333333"></path></svg>