<?xml version="1.0" standalone="no"?><!DOCTYPE svg PUBLIC "-//W3C//DTD SVG 1.1//EN" "http://www.w3.org/Graphics/SVG/1.1/DTD/svg11.dtd"><svg t="1732439993221" class="icon" viewBox="0 0 1092 1024" version="1.1" xmlns="http://www.w3.org/2000/svg" p-id="8786" xmlns:xlink="http://www.w3.org/1999/xlink" width="213.28125" height="200"><path d="M0 545.348659 0 477.116109 1091.720806 477.116109 1091.720806 545.348659 0 545.348659ZM696.347293 202.684791C664.124471 160.414726 608.242012 139.262635 528.734033 139.262635 475.734399 139.262635 435.579544 150.896285 408.303582 174.180643 381.010561 197.447943 367.381109 228.186707 367.381109 266.34576 367.381109 308.104081 385.292154 341.538031 421.165417 366.596435 441.83988 381.505247 472.356888 394.657071 512.716442 406.017791L522.866034 408.883558 250.566983 408.883558C235.538764 378.605364 228.016125 344.11381 228.016125 305.425954 228.016125 214.42079 256.17911 140.763751 312.522139 84.471897 368.848109 28.197101 444.620356 0.051174 539.804764 0.051174 664.312111 0.051174 754.089089 42.577111 809.135699 127.594869 843.610195 181.481526 860.344228 239.564484 859.32074 301.843745L729.866533 301.843745C727.256638 265.52697 716.083558 232.468299 696.347293 202.684791ZM371.884458 809.30628C407.12657 861.384774 468.262935 887.449609 555.327669 887.449609 607.133233 887.449609 652.729635 874.417191 692.116875 848.369415 731.487056 822.321639 751.189205 782.064434 751.189205 727.580743 751.189205 686.248876 735.444544 654.827786 703.972281 633.2663 694.641479 627.159487 680.926737 620.592104 663.186274 613.581209L873.632517 613.581209C882.229818 641.539497 886.733167 673.131168 886.733167 708.714443 886.733167 794.329235 858.843112 868.29332 803.08006 930.555522 747.317008 992.817724 662.384541 1023.965884 548.265601 1023.965884 425.412894 1023.965884 338.43345 991.470132 287.293153 926.512744 236.152857 861.555356 208.774546 781.160353 205.175279 685.361852L336.915276 685.361852C341.060403 739.248509 352.711111 780.563318 371.884458 809.30628Z" p-id="8787" fill="#333333"></path></svg>