<?xml version="1.0" standalone="no"?><!DOCTYPE svg PUBLIC "-//W3C//DTD SVG 1.1//EN" "http://www.w3.org/Graphics/SVG/1.1/DTD/svg11.dtd"><svg t="1732444372613" class="icon" viewBox="0 0 1024 1024" version="1.1" xmlns="http://www.w3.org/2000/svg" p-id="7323" xmlns:xlink="http://www.w3.org/1999/xlink" width="200" height="200"><path d="M829.126198 248.810776h-23.73037v-207.101414h-612.675018v207.101414h-10.786532c-77.317861 0-140.224916 62.907055-140.224916 140.224916v263.191381c0 77.326491 62.907055 140.224916 140.224916 140.224916h15.101145v207.101415h612.675018v-207.101415h19.415757c77.322176 0 140.224916-62.898425 140.224916-140.224916v-263.191381c0-77.317861-62.90274-140.224916-140.224916-140.224916z m-127.281077 642.877308h-396.944378v-241.618317h396.944378v241.618317z m159.640673-239.461011c0 17.538901-14.82501 32.359596-32.359596 32.359596h-19.415757v-142.382222h-612.675018v142.382222h-15.101145c-17.538901 0-32.359596-14.820695-32.359596-32.359596v-263.191381c0-17.538901 14.820695-32.359596 32.359596-32.359596h349.483637v-107.86532h-230.831785v-99.236094h396.944378v99.236094h-75.505724v107.86532h207.101414c17.534586 0 32.359596 14.820695 32.359596 32.359596v263.191381z" p-id="7324" fill="#333333"></path></svg>