<?xml version="1.0" standalone="no"?><!DOCTYPE svg PUBLIC "-//W3C//DTD SVG 1.1//EN" "http://www.w3.org/Graphics/SVG/1.1/DTD/svg11.dtd"><svg t="1732444989487" class="icon" viewBox="0 0 1024 1024" version="1.1" xmlns="http://www.w3.org/2000/svg" p-id="3371" xmlns:xlink="http://www.w3.org/1999/xlink" width="200" height="200"><path d="M849.454545 209.454545h-698.181818a34.909091 34.909091 0 0 1 0-69.818181h698.181818a34.909091 34.909091 0 0 1 0 69.818181z m11.636364 674.909091H162.909091a34.909091 34.909091 0 0 1 0-69.818181h698.181818a34.909091 34.909091 0 0 1 0 69.818181zM587.636364 372.363636H157.090909a34.909091 34.909091 0 0 1 0-69.818181h430.545455a34.909091 34.909091 0 0 1 0 69.818181z m-8.727273 174.545455H151.272727a34.909091 34.909091 0 0 1 0-69.818182h427.636364a34.909091 34.909091 0 0 1 0 69.818182z m0 174.545454H154.181818a34.909091 34.909091 0 0 1 0-69.818181h424.727273a34.909091 34.909091 0 0 1 0 69.818181zM872.727273 693.015273L691.712 512l181.015273-181.038545v362.053818z" fill="#333333" p-id="3372"></path></svg>